<svg xmlns="http://www.w3.org/2000/svg" viewBox="0 0 133.8 90.1"><defs><style>.cls-1{fill:#2c2c2c;}.cls-2{fill:#898989;}.cls-3{fill:#fff;}</style></defs><g id="Layer_2" data-name="Layer 2"><g id="Layer_1-2" data-name="Layer 1"><g id="Group_5" data-name="Group 5"><g id="Group_3" data-name="Group 3"><g id="Group_4" data-name="Group 4"><g id="Logo"><g id="Logo-2"><path id="Path_2" data-name="Path 2" class="cls-1" d="M56.1,15.3c.1-.4.5-.6,1.3-.7s1,.1,1,.6-1.1,1.3-3,2.3-4.3,1.9-6.5,2.7l-6.5,2.1-7.5,1.9-1.7.5h-.3c-.7.1-1.1,0-1.2-.5s.3-.5.7-.7H33c6.1-1.5,12-5.4,17.6-11.8,2.9-3.2,3.9-5.8,3.1-7.5A4.6,4.6,0,0,0,51,2a16.4,16.4,0,0,0-4.4-.9H41.7A88.9,88.9,0,0,0,10.5,9.7a40.2,40.2,0,0,0-4.6,2.4A15.4,15.4,0,0,0,3,14.4a2.9,2.9,0,0,0-.7,2.8,6.4,6.4,0,0,0,2.3,3.1,36.8,36.8,0,0,0,7.7,5.1c3.2,1.7,6.3,3.1,9.2,4.3s6,2.6,9.3,4.3a47.2,47.2,0,0,1,8.1,4.9c2.1,1.7,2.7,3.1,1.8,4.3S38,45.3,35.3,46a53.1,53.1,0,0,1-8.9,1.3,57.5,57.5,0,0,1-8.3.1l-2-.2-2.4-.3-2.5-.4L9,45.9a5.3,5.3,0,0,1-1.7-.8,4.7,4.7,0,0,1-1-1,.8.8,0,0,1,.2-1.2h0l.7-.9,1-.9,1.1-.8a11.9,11.9,0,0,1,1.5-.9l1.4-.7,1.6-.8,1.4-.7,1.6-.7,1.4-.6a1.7,1.7,0,0,1,1.2-.1c.4,0,.6.2.6.3s-.1.4-.4.6a72.9,72.9,0,0,0-7.4,3.7l-.4.2a7.6,7.6,0,0,0-1.5,1,3.1,3.1,0,0,0-1.1.9,1.1,1.1,0,0,0-.3,1.1,2.9,2.9,0,0,0,1.2,1c1.1.6,3.6,1.1,7.6,1.5a52.3,52.3,0,0,0,13.7-.5c5.6-.9,7.9-2.3,6.9-4.3A6,6,0,0,0,36,39.1a58.9,58.9,0,0,0-6.4-3.7c-2.5-1.3-4.9-2.4-7.3-3.5l-7.2-3.2A57,57,0,0,1,8.2,25a33.2,33.2,0,0,1-5.8-4A7.1,7.1,0,0,1,.3,18.2a3.2,3.2,0,0,1,0-2.7A10.1,10.1,0,0,1,2,13a11.4,11.4,0,0,1,3-2.3l4-2a44.7,44.7,0,0,1,4.6-1.9l4.7-1.6c1.2-.5,2.8-.9,4.5-1.4l5.5-1.4L35.6.9A68.7,68.7,0,0,1,43.4.1a30.8,30.8,0,0,1,6.8.2,8,8,0,0,1,4.7,1.8,4,4,0,0,1,1.2,4c-.6,3.2-3.8,7-9.6,11.5a50.2,50.2,0,0,1-5.6,3.8,85.3,85.3,0,0,0,12-4.2C55,16.3,56.1,15.6,56.1,15.3Z"/><path id="Path_3" data-name="Path 3" class="cls-1" d="M132,2c.9.1,1.1.4.5.9a2.3,2.3,0,0,1-1.4.4Q106.7-.1,72.2,4c-6.3.7-12.4,1.7-18.4,2.9l-1.2.2-1.4.3-1.3.3-1.4.4-1,.4-.5.4-.3.2h1.2l1,.2C67,11.9,77.9,15.8,81.5,21c1-3.1,1.9-5.9,2.7-8.2l.3-.9.3-1.2.3-1.1a2.4,2.4,0,0,1,.6-1.1l.9-.8.9-.2h.8a.4.4,0,0,1,0,.7h-.1c.1.1,0,.2-.1.3v.2a3.5,3.5,0,0,1-.6,1.4c-.4,1-.9,2.3-1.4,4s-2.1,6.1-3.2,9.8a10.9,10.9,0,0,1,.5,2.6,26.2,26.2,0,0,1-.1,2.8,27,27,0,0,1-.4,2.8c-.2,1.1-.4,2-.6,2.8s-.4,1.7-.7,2.7a26.1,26.1,0,0,1-.6,2.6c-.7,3.5-1.5,6.7-2.3,9.6a4.9,4.9,0,0,1-.1,1.2,4.4,4.4,0,0,1-.5,1.5,2.1,2.1,0,0,1-.8,1.1,1.7,1.7,0,0,1-1,.3A1.2,1.2,0,0,1,74.8,53c0-.1-.1-.2,0-.3a5.5,5.5,0,0,1,.2-1.8,5.1,5.1,0,0,1,.2-1.3,44.2,44.2,0,0,1,1-7.3,148.2,148.2,0,0,1,3.7-16l.3-.9a2.9,2.9,0,0,0,.2-.9,3,3,0,0,0-.2-1c-.6-1.9-2.3-3.7-5.1-5.3a46.1,46.1,0,0,0-10-4.2A79.2,79.2,0,0,0,49,10.8H46.7l-1.2-.2-1-.4c-.9-.7-.4-1.4,1.6-2.3l1.6-.6,1.8-.5,1.8-.4,2-.5,1.8-.3,2-.4,1.8-.2C65.8,3.6,72.7,2.7,79.8,2Q110.6-1,132,2Z"/></g></g></g><g id="Group_2" data-name="Group 2"><g id="Logo-3"><g id="Logo-4"><path id="Path_2-2" data-name="Path 2-2" class="cls-2" d="M57.1,31.2c.1-.4.5-.6,1.3-.6s1,.1,1,.5-1.1,1.3-3,2.3a40.6,40.6,0,0,1-6.5,2.7l-6.5,2.1-7.5,2-1.7.4h-.3c-.7.2-1.1,0-1.2-.4a.8.8,0,0,1,.7-.7H34C40.1,38,46,34,51.6,27.6c2.9-3.2,3.9-5.7,3.1-7.5A4.9,4.9,0,0,0,52,17.9a13.2,13.2,0,0,0-4.4-.8,40.1,40.1,0,0,0-4.9,0,88.9,88.9,0,0,0-31.2,8.5A40.2,40.2,0,0,0,6.9,28,12.8,12.8,0,0,0,4,30.4a2.9,2.9,0,0,0-.7,2.8,5.7,5.7,0,0,0,2.3,3,36.8,36.8,0,0,0,7.7,5.1,82.5,82.5,0,0,0,9.2,4.3c2.9,1.2,6,2.7,9.3,4.3a47.2,47.2,0,0,1,8.1,4.9c2.1,1.7,2.7,3.2,1.8,4.3s-2.7,2.1-5.4,2.8a53.2,53.2,0,0,1-8.9,1.4,57.5,57.5,0,0,1-8.3,0h-2l-2.4-.3-2.5-.5a7.9,7.9,0,0,1-2.2-.6,5.1,5.1,0,0,1-1.7-.7l-1-1a.8.8,0,0,1,.2-1.2h0a3.6,3.6,0,0,1,.7-1l1-.9,1.1-.8,1.5-.8,1.4-.8,1.6-.8,1.4-.6,1.6-.7,1.4-.6a1.7,1.7,0,0,1,1.2-.2c.4.1.6.2.6.4s-.1.3-.4.6a56,56,0,0,0-7.4,3.6.5.5,0,0,1-.4.2l-1.5,1-1.1.9a1.1,1.1,0,0,0-.3,1.1,3.2,3.2,0,0,0,1.2,1.1c1.1.5,3.6,1,7.6,1.4a52.3,52.3,0,0,0,13.7-.4c5.6-1,7.9-2.4,6.9-4.4A6.9,6.9,0,0,0,37,55a58.9,58.9,0,0,0-6.4-3.7c-2.5-1.2-4.9-2.4-7.3-3.4l-7.2-3.3A74.9,74.9,0,0,1,9.2,41a40.3,40.3,0,0,1-5.8-4.1,6.5,6.5,0,0,1-2.1-2.8,3.2,3.2,0,0,1,0-2.7A8.1,8.1,0,0,1,3,29a9.6,9.6,0,0,1,3-2.3l4-2.1,4.6-1.9,4.7-1.6,4.5-1.4,5.5-1.4,7.3-1.4a51.8,51.8,0,0,1,7.8-.9,38.4,38.4,0,0,1,6.8.2A8.8,8.8,0,0,1,55.9,18a4,4,0,0,1,1.2,4c-.6,3.2-3.8,7-9.6,11.5a50.2,50.2,0,0,1-5.6,3.8,73.9,73.9,0,0,0,12-4.1C56,32.2,57.1,31.6,57.1,31.2Z"/><path id="Path_3-2" data-name="Path 3-2" class="cls-2" d="M133,18c.9.1,1.1.4.5.8a2.3,2.3,0,0,1-1.4.4c-16.3-2.3-35.9-2-58.9.7-6.3.8-12.4,1.7-18.4,2.9l-1.2.3-1.4.2-1.3.3-1.4.4-1,.4-.5.4-.3.2c0,.1,0,.1.1.2h2.1C68,27.8,78.9,31.7,82.5,37c1-3.2,1.9-6,2.7-8.3l.3-.9.3-1.2.3-1.1a2.4,2.4,0,0,1,.6-1.1l.9-.8.9-.2.8.2q.5.3,0,.6h-.1c.1,0,0,.1-.1.2v.3a3.8,3.8,0,0,1-.6,1.3c-.4,1-.9,2.4-1.4,4s-2.1,6.1-3.2,9.8a12.8,12.8,0,0,1,.5,2.7,24.4,24.4,0,0,1-.1,2.7,28.9,28.9,0,0,1-.4,2.9q-.3,1.5-.6,2.7l-.7,2.8c-.2,1-.4,1.8-.6,2.5-.7,3.5-1.5,6.7-2.3,9.7a4.5,4.5,0,0,1-.1,1.1,4.9,4.9,0,0,1-.5,1.6,1.9,1.9,0,0,1-.8,1l-1,.4a1.3,1.3,0,0,1-1.4-1.2c0-.1-.1-.2,0-.3a5.5,5.5,0,0,1,.2-1.8,6.9,6.9,0,0,1,.2-1.3,45.7,45.7,0,0,1,1-7.3,141.2,141.2,0,0,1,3.7-15.9l.3-.9a3,3,0,0,0,.2-1,2,2,0,0,0-.2-.9q-.9-3-5.1-5.4a46.1,46.1,0,0,0-10-4.2A95.6,95.6,0,0,0,50,26.7H47.7l-1.2-.2-1-.4c-.9-.6-.4-1.4,1.6-2.2l1.6-.6,1.8-.6,1.8-.4,2-.4,1.8-.4,2-.3,1.8-.3c6.9-1.2,13.8-2.1,20.9-2.8C101.3,16,118.7,16,133,18Z"/></g></g></g><g id="Group_1" data-name="Group 1"><g id="Logo-5"><g id="Logo-6"><path id="Path_2-3" data-name="Path 2-3" class="cls-3" d="M57.1,51.3c.1-.4.5-.6,1.3-.7s1,.1,1,.6-1.1,1.3-3,2.3-4.3,1.9-6.5,2.7l-6.5,2.1-7.5,1.9-1.7.5h-.3c-.7.1-1.1,0-1.2-.5s.3-.5.7-.7H34c6.1-1.5,12-5.4,17.6-11.8,2.9-3.2,3.9-5.8,3.1-7.5A4.6,4.6,0,0,0,52,38a16.4,16.4,0,0,0-4.4-.9H42.7a88.9,88.9,0,0,0-31.2,8.5,40.2,40.2,0,0,0-4.6,2.4A15.4,15.4,0,0,0,4,50.4a2.9,2.9,0,0,0-.7,2.8,6.4,6.4,0,0,0,2.3,3.1,36.8,36.8,0,0,0,7.7,5.1c3.2,1.7,6.3,3.1,9.2,4.3s6,2.6,9.3,4.3a47.2,47.2,0,0,1,8.1,4.9c2.1,1.7,2.7,3.1,1.8,4.3S39,81.3,36.3,82a53.1,53.1,0,0,1-8.9,1.3,57.5,57.5,0,0,1-8.3.1l-2-.2-2.4-.3-2.5-.4L10,81.9a5.3,5.3,0,0,1-1.7-.8,4.7,4.7,0,0,1-1-1,.8.8,0,0,1,.2-1.2h0l.7-.9,1-.9,1.1-.8,1.5-.9,1.4-.7,1.6-.8,1.4-.7,1.6-.7,1.4-.6a1.7,1.7,0,0,1,1.2-.1c.4,0,.6.2.6.3s-.1.4-.4.6a72.9,72.9,0,0,0-7.4,3.7l-.4.2-1.5,1a3.1,3.1,0,0,0-1.1.9,1.1,1.1,0,0,0-.3,1.1,2.9,2.9,0,0,0,1.2,1c1.1.6,3.6,1.1,7.6,1.5a52.3,52.3,0,0,0,13.7-.5c5.6-.9,7.9-2.3,6.9-4.3A6,6,0,0,0,37,75.1a58.9,58.9,0,0,0-6.4-3.7c-2.5-1.3-4.9-2.4-7.3-3.5l-7.2-3.2A57,57,0,0,1,9.2,61a33.2,33.2,0,0,1-5.8-4,7.1,7.1,0,0,1-2.1-2.8,3.2,3.2,0,0,1,0-2.7A10.1,10.1,0,0,1,3,49a11.4,11.4,0,0,1,3-2.3l4-2a44.7,44.7,0,0,1,4.6-1.9l4.7-1.6c1.2-.5,2.8-.9,4.5-1.4l5.5-1.4,7.3-1.5a68.7,68.7,0,0,1,7.8-.8,30.8,30.8,0,0,1,6.8.2,8,8,0,0,1,4.7,1.8,4,4,0,0,1,1.2,4c-.6,3.2-3.8,7-9.6,11.5a50.2,50.2,0,0,1-5.6,3.8,85.3,85.3,0,0,0,12-4.2C56,52.3,57.1,51.6,57.1,51.3Z"/><path id="Path_3-3" data-name="Path 3-3" class="cls-3" d="M133,38c.9.1,1.1.4.5.9a2.3,2.3,0,0,1-1.4.4q-24.4-3.4-58.9.7c-6.3.7-12.4,1.7-18.4,2.9l-1.2.2-1.4.3-1.3.3-1.4.4-1,.4-.5.4-.3.2c0,.1,0,.1.1.1h1.1l1,.2C68,47.9,78.9,51.8,82.5,57c1-3.1,1.9-5.9,2.7-8.2l.3-.9.3-1.2.3-1.1a2.4,2.4,0,0,1,.6-1.1l.9-.8.9-.2h.8a.4.4,0,0,1,0,.7h0c0,.1,0,.1-.1.1s0,.2-.1.3a.3.3,0,0,0-.1.2,3.5,3.5,0,0,1-.6,1.4c-.4,1-.9,2.3-1.4,4s-2.1,6.1-3.2,9.8a10.9,10.9,0,0,1,.5,2.6,26.2,26.2,0,0,1-.1,2.8,27,27,0,0,1-.4,2.8c-.2,1.1-.4,2-.6,2.8s-.4,1.7-.7,2.7a26.1,26.1,0,0,1-.6,2.6c-.7,3.5-1.5,6.7-2.3,9.6a4.9,4.9,0,0,1-.1,1.2,4.4,4.4,0,0,1-.5,1.5,2.1,2.1,0,0,1-.8,1.1,1.7,1.7,0,0,1-1,.3A1.2,1.2,0,0,1,75.8,89c0-.1-.1-.2,0-.3a5.5,5.5,0,0,1,.2-1.8,5.1,5.1,0,0,1,.2-1.3,44.2,44.2,0,0,1,1-7.3,148.2,148.2,0,0,1,3.7-16l.3-.9a2.9,2.9,0,0,0,.2-.9,3,3,0,0,0-.2-1c-.6-1.9-2.3-3.7-5.1-5.3a46.1,46.1,0,0,0-10-4.2A79.2,79.2,0,0,0,50,46.8H47.7l-1.2-.2-1-.4c-.9-.7-.4-1.4,1.6-2.3l1.6-.6,1.8-.5,1.8-.4,2-.5,1.8-.3,2-.4,1.8-.2c6.9-1.2,13.8-2.1,20.9-2.8Q111.6,35,133,38Z"/></g></g></g></g></g></g></g></svg>