<svg xmlns="http://www.w3.org/2000/svg" viewBox="0 0 133 54.3"><g id="Layer_2" data-name="Layer 2"><g id="Layer_1-2" data-name="Layer 1"><g id="Layer_2-2" data-name="Layer 2"><g id="Layer_1-2-2" data-name="Layer 1-2"><g id="Group_2" data-name="Group 2"><g id="Component_1_1" data-name="Component 1 1"><g id="Logo"><path id="Path_2" data-name="Path 2" d="M56.2,15.4c.1-.4.4-.7,1.3-.7s1.1,0,1,.5-1.1,1.4-2.9,2.3A45.8,45.8,0,0,1,49,20.2a67,67,0,0,1-6.5,2.1l-7.5,2-1.7.4H33c-.8.2-1.1,0-1.3-.4s.3-.6.8-.7h.6c6-1.6,12-5.5,17.6-11.9,2.9-3.2,3.9-5.7,3.1-7.5a4.3,4.3,0,0,0-2.7-2.1,13.4,13.4,0,0,0-4.4-1h-5A89.1,89.1,0,0,0,10.5,9.8L6,12.1a11.3,11.3,0,0,0-2.9,2.4,2.9,2.9,0,0,0-.8,2.8,6.9,6.9,0,0,0,2.3,3,32.2,32.2,0,0,0,7.7,5.1c3.3,1.7,6.3,3.2,9.2,4.4s6.1,2.6,9.4,4.3a58.4,58.4,0,0,1,8,4.8c2.2,1.7,2.8,3.2,1.9,4.4s-2.7,2.1-5.4,2.8a53.1,53.1,0,0,1-8.9,1.3,47.1,47.1,0,0,1-8.4.1l-2-.2-2.3-.2-2.6-.5L9,46a3.8,3.8,0,0,1-1.7-.8,2.8,2.8,0,0,1-1-.9.9.9,0,0,1,.2-1.2h0l.7-1,1.1-.9,1.1-.8a4.2,4.2,0,0,1,1.4-.9l1.4-.7,1.7-.8,1.3-.7,1.7-.7,1.3-.6a2,2,0,0,1,1.3-.1c.3,0,.6.1.6.3s-.1.4-.5.7a49.5,49.5,0,0,0-7.3,3.6h-.4l-1.7,1.1a3.4,3.4,0,0,0-.9.8,1,1,0,0,0-.4,1.1,2.5,2.5,0,0,0,1.2,1.1,34,34,0,0,0,7.7,1.6,57.2,57.2,0,0,0,13.7-.5c5.6-.9,7.9-2.3,6.9-4.3a6.9,6.9,0,0,0-2.3-2.2,58.9,58.9,0,0,0-6.4-3.7L22.4,32l-7.2-3.3a76.7,76.7,0,0,1-7-3.6,34.1,34.1,0,0,1-5.7-4A6.6,6.6,0,0,1,.3,18.3a2.9,2.9,0,0,1,.1-2.7A10.1,10.1,0,0,1,2,13a17,17,0,0,1,3-2.3l4-2c1.6-.6,3.1-1.4,4.6-1.9l4.6-1.5,4.7-1.5,5.6-1.3L35.6,1a71.1,71.1,0,0,1,7.9-1,38.3,38.3,0,0,1,6.8.3,8.3,8.3,0,0,1,4.8,1.8,4,4,0,0,1,1.1,4c-.6,3.3-3.8,7.1-9.5,11.6-1.8,1.3-3.8,2.6-5.7,3.7a73.9,73.9,0,0,0,12-4.1C55.2,16.3,56.2,15.7,56.2,15.4Z"/><path id="Path_3" data-name="Path 3" d="M132.2,2.1c.9.1,1.1.4.5.9a3.1,3.1,0,0,1-1.3.3c-16.3-2.2-36-2-59.1.8C66,4.8,59.9,5.8,53.8,7l-1,.2-1.5.3L50,7.7l-1.4.4-.9.4-.7.4-.2.3H49c18.1,2.4,29,6.3,32.7,11.5.9-3.2,1.9-6,2.6-8.3a1.1,1.1,0,0,0,.3-.8l.4-1.2a2,2,0,0,1,.3-1.1,3.7,3.7,0,0,1,.5-1.1l1-.9h1.7c.2.3.2.4,0,.6h-.1c.1.2,0,.2,0,.3l-.3.2a1.6,1.6,0,0,1-.6,1.8c-.4,1.1-.8,2.5-1.3,4.1s-2.1,6.2-3.2,9.8a12.6,12.6,0,0,1,.4,2.7,13.1,13.1,0,0,1,0,2.8L83,32.4c-.2,1.1-.5,2-.6,2.8s-.5,1.7-.7,2.8a17.6,17.6,0,0,0-.6,2.5c-.8,3.5-1.5,6.7-2.3,9.6a5,5,0,0,1-.2,1.2,4.3,4.3,0,0,1-.5,1.6,2.6,2.6,0,0,1-.7,1.1l-1,.2a1.2,1.2,0,0,1-1.5-1h0v-.3a9.9,9.9,0,0,1,.2-1.8,6.1,6.1,0,0,1,.3-1.3,46.7,46.7,0,0,1,.9-7.4,146.9,146.9,0,0,1,3.8-15.9,3.1,3.1,0,0,0,.2-.8,2.2,2.2,0,0,0,.3-1,1.7,1.7,0,0,0-.3-1c-.4-1.9-2.3-3.8-5.1-5.3A51.1,51.1,0,0,0,65.3,14a81.3,81.3,0,0,0-16.2-3.1H46.8l-1.2-.3a1.3,1.3,0,0,1-1-.4c-.8-.6-.3-1.3,1.6-2.1l1.6-.6,1.8-.7,1.8-.3,2-.5,1.8-.4,2.1-.2L59,5c6.9-1.2,13.9-2,21-2.8C100.4,0,117.9,0,132.2,2.1Z"/></g></g></g></g></g></g></g></svg>