<svg xmlns="http://www.w3.org/2000/svg" width="70.079" height="69.906" viewBox="0 0 70.079 69.906">
  <defs>
    <style>
      .cls-1 {
        fill: none;
        stroke-linecap: round;
        stroke-linejoin: round;
      }

      .cls-2, .cls-3 {
        stroke: none;
      }

      .cls-3 {
        fill: #00bdaa;
      }
    </style>
  </defs>
  <g id="Polygon_1" data-name="Polygon 1" class="cls-1" transform="matrix(0.719, -0.695, 0.695, 0.719, 0, 36.817)">
    <path class="cls-2" d="M22.168,7.521a5,5,0,0,1,8.665,0L48.682,38.5A5,5,0,0,1,44.349,46H8.651a5,5,0,0,1-4.332-7.5Z"/>
    <path class="cls-3" d="M 26.49999237060547 9.016456604003906 C 26.2363224029541 9.016456604003906 25.87195205688477 9.103343963623047 25.63350105285645 9.517276763916016 L 7.784282684326172 40.50081634521484 C 7.546211242675781 40.91407775878906 7.653263092041016 41.27249526977539 7.784992218017578 41.50040435791016 C 7.916721343994141 41.72831726074219 8.173851013183594 41.99999618530273 8.650783538818359 41.99999618530273 L 44.34921264648438 41.99999618530273 C 44.82614135742188 41.99999618530273 45.08328247070312 41.72831726074219 45.21500396728516 41.50040435791016 C 45.34673309326172 41.27249526977539 45.45378112792969 40.91407775878906 45.21571350097656 40.50082397460938 L 27.36649131774902 9.517276763916016 C 27.12804222106934 9.103343963623047 26.763671875 9.016456604003906 26.49999237060547 9.016456604003906 M 26.49999618530273 5.016456604003906 C 28.18538475036621 5.016456604003906 29.87077140808105 5.851154327392578 30.83249282836914 7.520557403564453 L 48.68171310424805 38.50410461425781 C 50.60200119018555 41.83743667602539 48.19611358642578 45.99999618530273 44.34921264648438 45.99999618530273 L 8.650783538818359 45.99999618530273 C 4.803882598876953 45.99999618530273 2.398002624511719 41.83743667602539 4.318283081054688 38.50410461425781 L 22.16750144958496 7.520557403564453 C 23.12922096252441 5.851154327392578 24.81460952758789 5.016456604003906 26.49999618530273 5.016456604003906 Z"/>
  </g>
</svg>
