<?xml version="1.0" standalone="no"?>
<!DOCTYPE svg PUBLIC "-//W3C//DTD SVG 20010904//EN"
 "http://www.w3.org/TR/2001/REC-SVG-20010904/DTD/svg10.dtd">
<svg version="1.0" xmlns="http://www.w3.org/2000/svg"
 width="2128.000000pt" height="2128.000000pt" viewBox="0 0 2128.000000 2128.000000"
 preserveAspectRatio="xMidYMid meet">
<metadata>
Created by potrace 1.11, written by Peter Selinger 2001-2013
</metadata>
<g transform="translate(0.000000,2128.000000) scale(0.100000,-0.100000)"
fill="#000000" stroke="none">
<path d="M6890 14977 c-3 -3 -43 -8 -90 -11 -172 -13 -312 -27 -415 -41 -86
-11 -143 -19 -165 -21 -14 -1 -25 -3 -25 -4 0 -1 -13 -3 -30 -4 -16 -2 -52 -6
-80 -11 -27 -4 -59 -9 -70 -10 -11 -2 -51 -8 -90 -15 -38 -6 -81 -13 -95 -15
-14 -2 -35 -6 -46 -9 -12 -2 -37 -7 -55 -10 -19 -3 -47 -9 -64 -12 -16 -4 -38
-7 -47 -8 -10 0 -18 -3 -18 -6 0 -3 -8 -6 -17 -6 -23 -1 -74 -10 -93 -18 -8
-3 -28 -7 -45 -10 -52 -9 -89 -16 -115 -23 -14 -4 -32 -8 -40 -9 -8 -1 -26 -4
-40 -7 -14 -4 -38 -9 -55 -12 -16 -3 -47 -10 -68 -16 -20 -5 -42 -7 -47 -4 -6
3 -10 2 -10 -3 0 -5 -6 -9 -12 -9 -12 -1 -67 -11 -93 -17 -5 -2 -28 -6 -50
-11 -47 -9 -56 -11 -110 -24 -22 -6 -55 -12 -73 -16 -18 -3 -65 -12 -105 -21
-91 -20 -79 -17 -234 -53 -72 -17 -144 -33 -160 -36 -39 -8 -58 -13 -58 -15 0
-1 -7 -3 -15 -5 -27 -5 -84 -16 -105 -20 -11 -2 -20 -4 -20 -5 0 -1 -7 -3 -15
-5 -8 -1 -57 -13 -108 -25 -51 -12 -101 -23 -110 -25 -9 -2 -17 -4 -17 -5 0
-1 -11 -3 -25 -6 -14 -2 -50 -11 -80 -18 -30 -8 -62 -16 -70 -18 -8 -1 -17 -6
-20 -9 -4 -4 -41 -16 -135 -43 -5 -2 -17 -6 -25 -9 -15 -6 -176 -57 -195 -61
-5 -2 -17 -6 -25 -9 -22 -8 -183 -59 -200 -62 -8 -2 -42 -13 -75 -25 -33 -12
-67 -23 -75 -25 -8 -2 -85 -27 -170 -55 -85 -28 -162 -53 -170 -55 -8 -2 -95
-30 -193 -63 -97 -33 -177 -58 -177 -55 0 3 -6 1 -12 -4 -7 -6 -47 -23 -88
-38 -73 -27 -142 -56 -226 -96 -23 -10 -44 -19 -47 -19 -4 0 -38 -15 -77 -34
-38 -19 -70 -32 -70 -29 0 3 -6 1 -13 -4 -6 -6 -48 -24 -92 -41 -44 -17 -168
-75 -275 -129 -107 -53 -197 -98 -200 -98 -3 -1 -41 -20 -85 -42 -44 -23 -105
-54 -135 -70 -30 -15 -56 -31 -58 -35 -2 -5 -8 -8 -13 -8 -11 0 -126 -78 -159
-107 -14 -13 -28 -23 -31 -23 -3 0 -15 -8 -27 -17 -11 -10 -31 -26 -44 -37
-96 -78 -208 -181 -208 -192 0 -3 -20 -30 -45 -61 -25 -30 -45 -61 -45 -69 0
-8 -3 -14 -7 -14 -9 0 -33 -40 -76 -125 -16 -33 -41 -82 -55 -110 -40 -80 -60
-167 -56 -248 1 -39 5 -81 7 -92 14 -58 93 -226 110 -233 4 -2 7 -8 7 -13 0
-18 82 -122 157 -197 40 -41 73 -71 73 -66 0 5 4 4 8 -2 16 -24 246 -210 382
-309 103 -76 339 -235 346 -235 3 0 25 -13 49 -30 24 -16 46 -30 50 -30 3 0
22 -11 43 -23 39 -25 98 -59 192 -110 30 -16 60 -33 65 -37 14 -10 102 -58
205 -111 47 -24 87 -46 90 -49 3 -3 55 -30 115 -59 61 -30 113 -60 117 -65 4
-6 8 -8 8 -4 0 4 49 -18 110 -48 60 -30 111 -54 112 -53 2 0 28 -12 58 -27 30
-15 57 -28 60 -27 3 0 25 -10 50 -23 79 -39 180 -84 190 -84 6 0 10 -4 10 -10
0 -5 5 -10 12 -10 6 0 80 -31 164 -70 85 -38 158 -70 164 -70 5 0 10 -5 10
-11 0 -5 4 -7 10 -4 6 3 10 1 10 -4 0 -6 4 -10 8 -8 11 3 135 -55 144 -68 4
-5 8 -7 8 -3 0 4 44 -14 98 -38 53 -25 117 -55 142 -66 25 -11 83 -38 128 -59
46 -22 88 -39 93 -39 5 0 9 -5 9 -12 0 -6 3 -9 6 -6 3 3 47 -14 97 -39 98 -48
219 -106 227 -108 3 -1 82 -39 175 -85 94 -46 172 -84 175 -85 6 0 108 -50
275 -132 61 -30 111 -54 113 -53 3 1 107 -52 232 -118 236 -124 496 -273 633
-364 32 -21 61 -38 63 -38 3 0 45 -27 94 -60 49 -33 94 -60 100 -60 5 0 10 -4
10 -10 0 -5 7 -10 15 -10 8 0 15 -4 15 -8 0 -4 14 -16 30 -26 75 -44 243 -233
275 -309 67 -161 -7 -296 -228 -416 -34 -18 -66 -34 -72 -36 -5 -1 -23 -8 -40
-15 -83 -34 -288 -98 -375 -115 -8 -2 -33 -7 -55 -13 -22 -5 -47 -10 -55 -11
-8 0 -67 -11 -130 -24 -104 -22 -151 -30 -245 -42 -16 -2 -43 -6 -60 -9 -16
-2 -52 -8 -80 -11 -27 -4 -61 -8 -75 -10 -14 -2 -52 -7 -85 -10 -33 -4 -73 -9
-90 -11 -16 -3 -64 -7 -105 -10 -41 -3 -91 -7 -110 -9 -146 -12 -262 -18 -362
-19 -65 -1 -118 -3 -118 -6 0 -3 -117 -5 -260 -5 -143 0 -260 3 -260 6 0 4
-18 3 -40 -1 -22 -4 -42 -5 -44 -2 -3 2 -43 6 -88 8 -107 3 -311 18 -403 28
-22 3 -65 8 -95 11 -30 3 -66 8 -80 10 -30 5 -108 16 -135 20 -11 1 -48 8 -82
14 -35 7 -74 14 -88 17 -38 6 -63 12 -160 34 -80 18 -101 23 -140 34 -5 2 -28
6 -50 11 -22 4 -44 10 -50 14 -5 3 -17 6 -25 8 -49 8 -262 78 -296 98 -48 28
-109 87 -136 130 -23 39 -23 102 1 140 39 65 236 235 271 235 6 0 10 5 10 12
0 6 3 9 6 5 3 -3 15 3 27 14 11 10 27 19 34 19 7 0 13 4 13 9 0 5 13 14 30 21
16 7 30 16 30 20 0 11 67 33 78 26 9 -6 63 22 239 122 118 68 512 268 594 301
18 8 61 27 95 42 56 26 112 50 124 54 3 1 21 8 40 17 19 8 52 21 72 28 69 25
129 101 108 139 -11 22 -25 28 -90 37 -116 17 -187 2 -312 -67 -21 -11 -38
-17 -38 -12 0 4 -4 3 -8 -3 -4 -6 -72 -37 -152 -69 -80 -32 -179 -77 -220 -98
-109 -58 -254 -131 -260 -132 -3 0 -29 -13 -58 -28 -30 -15 -60 -27 -68 -27
-8 0 -14 -4 -14 -10 0 -5 -5 -10 -11 -10 -9 0 -128 -56 -169 -80 -8 -5 -59
-30 -112 -56 -53 -25 -106 -55 -117 -65 -11 -11 -22 -19 -25 -19 -3 0 -24 -18
-48 -40 -24 -22 -48 -40 -55 -40 -6 0 -13 -3 -15 -7 -1 -5 -30 -28 -63 -52
-171 -127 -224 -177 -288 -269 -27 -39 -57 -78 -66 -89 -24 -26 -39 -72 -35
-111 7 -62 59 -123 169 -200 114 -79 202 -117 338 -148 4 -1 8 -2 10 -3 1 -2
13 -4 27 -7 14 -2 36 -9 50 -14 14 -5 34 -11 45 -13 11 -2 27 -7 35 -10 22 -8
151 -38 185 -43 17 -3 37 -7 45 -10 8 -3 29 -8 45 -11 17 -2 62 -10 100 -18
145 -29 167 -32 260 -40 39 -3 88 -7 110 -9 22 -2 72 -7 110 -11 39 -3 93 -8
120 -11 28 -3 70 -7 95 -9 25 -2 70 -6 100 -9 194 -21 361 -28 650 -28 259 0
477 9 655 27 22 2 81 7 130 10 50 4 106 8 125 10 19 2 71 6 115 10 44 3 94 8
110 11 17 2 53 6 80 9 28 3 64 7 80 9 17 2 55 7 85 10 30 4 62 9 70 11 15 4
89 14 140 20 14 2 25 4 25 5 0 1 11 3 25 5 14 1 41 5 60 9 19 3 49 8 65 11 17
3 53 10 80 16 28 6 64 13 80 16 17 2 47 9 68 14 21 6 50 12 65 14 15 2 36 6
47 9 89 20 118 28 178 45 37 11 67 17 67 13 0 -4 4 -2 8 3 4 6 52 25 107 44
143 48 229 87 350 160 74 44 72 42 156 121 65 61 117 131 124 169 2 9 4 16 5
16 9 0 14 105 7 135 -22 91 -44 135 -110 220 -43 55 -134 149 -179 185 -7 6
-34 27 -59 48 -25 20 -50 37 -54 37 -4 0 -13 6 -19 13 -14 18 -275 191 -446
297 -74 45 -151 93 -171 106 -19 13 -40 24 -47 24 -7 0 -12 4 -12 8 0 4 -12
13 -27 19 -16 7 -50 26 -78 42 -27 16 -68 39 -90 50 -22 11 -65 34 -95 51 -75
42 -134 74 -140 75 -3 1 -43 21 -90 45 -88 45 -400 200 -505 250 -175 83 -200
95 -205 95 -3 0 -36 15 -75 34 -38 18 -83 39 -100 46 -16 7 -52 23 -80 35 -27
13 -102 45 -165 72 -147 64 -164 71 -170 73 -8 3 -82 35 -115 50 -16 7 -42 17
-57 20 -16 4 -28 11 -28 16 0 5 -6 9 -14 9 -14 0 -67 21 -164 66 -29 13 -54
24 -57 24 -2 0 -32 13 -67 29 -113 52 -183 84 -188 86 -28 10 -107 48 -369
177 -168 83 -308 151 -311 150 -3 0 -12 5 -20 12 -8 7 -116 63 -240 125 -124
62 -261 132 -305 156 -44 24 -100 54 -125 68 -25 13 -97 56 -160 96 -63 40
-124 78 -135 84 -11 7 -22 14 -25 17 -3 3 -18 14 -35 26 -79 55 -140 98 -150
106 -5 4 -32 25 -60 45 -27 21 -57 43 -65 50 -82 65 -190 156 -226 188 -12 11
-40 34 -61 52 -53 43 -131 121 -162 163 -14 19 -28 37 -32 40 -26 23 -126 216
-135 262 -15 69 -4 219 18 245 6 7 8 13 4 13 -10 0 44 92 80 137 62 76 218
224 309 292 87 65 205 141 220 141 4 0 19 9 33 19 15 10 30 19 34 20 11 2 102
45 108 51 9 9 605 310 705 356 33 15 62 28 65 29 3 0 37 16 75 34 39 17 79 36
90 41 11 5 55 25 98 45 43 19 85 35 93 35 8 0 14 5 14 10 0 6 5 10 11 10 9 0
90 32 214 85 17 7 104 42 195 78 91 35 174 68 185 72 11 5 23 9 28 10 4 2 9 4
12 5 3 1 8 3 13 5 4 1 14 5 22 8 39 17 285 103 470 163 113 36 214 70 225 74
24 10 191 61 214 65 9 2 16 4 16 5 0 1 7 3 15 5 8 2 40 11 70 20 30 9 62 17
70 19 8 2 56 16 106 30 50 15 102 29 115 32 33 7 41 9 64 17 11 3 31 9 45 11
14 3 72 17 130 31 135 34 136 34 161 40 11 2 28 6 37 9 9 3 28 7 42 10 14 2
63 13 110 25 47 11 99 22 115 25 17 2 30 5 30 6 0 1 13 3 30 5 16 2 50 9 75
14 43 10 244 49 285 56 75 12 102 17 115 20 8 3 33 7 55 10 22 3 81 12 130 20
50 8 108 17 130 20 22 4 47 8 56 11 9 2 40 7 70 9 57 5 118 13 159 20 14 3 50
7 80 10 30 3 64 7 75 9 11 2 54 7 95 11 41 4 89 9 105 11 119 14 229 17 590
17 374 0 516 -4 585 -18 14 -3 41 -8 60 -11 100 -15 271 -58 337 -85 15 -7 35
-13 43 -15 9 -2 34 -11 55 -21 22 -9 45 -18 50 -19 22 -2 104 -40 182 -82 36
-20 155 -140 190 -192 43 -63 71 -164 69 -247 l-1 -68 -210 -52 c-115 -29
-230 -55 -255 -59 -25 -3 -52 -7 -60 -9 -8 -3 -55 -11 -104 -20 -81 -14 -169
-44 -461 -160 -33 -13 -72 -27 -88 -31 -15 -3 -30 -10 -33 -15 -3 -5 -12 -9
-20 -9 -18 0 -154 -65 -209 -99 -22 -14 -59 -45 -82 -68 -45 -46 -54 -83 -32
-125 12 -23 69 -81 69 -71 0 3 8 -1 18 -9 18 -17 52 -29 92 -34 48 -5 85 -13
140 -29 42 -13 109 -17 275 -20 121 -2 247 -6 280 -9 129 -14 171 -18 192 -20
36 -3 34 -9 -13 -60 -24 -27 -44 -50 -44 -52 0 -2 -10 -14 -22 -27 -13 -13
-66 -70 -118 -127 -122 -133 -330 -341 -449 -450 -52 -47 -101 -92 -110 -101
-14 -14 -140 -121 -166 -141 -5 -4 -22 -18 -36 -30 -47 -40 -220 -174 -269
-208 -12 -8 -31 -23 -42 -32 -12 -10 -25 -18 -29 -18 -4 0 -15 -7 -23 -16 -22
-22 -194 -134 -206 -134 -6 0 -10 -4 -10 -9 0 -4 -20 -19 -45 -32 -25 -13 -45
-27 -45 -31 0 -5 -4 -8 -10 -8 -5 0 -44 -21 -87 -46 -43 -25 -100 -57 -128
-71 -27 -14 -52 -29 -55 -32 -3 -4 -25 -15 -50 -25 -25 -10 -47 -21 -50 -25
-16 -21 -539 -240 -614 -256 -6 -1 -18 -5 -26 -8 -24 -9 -94 -31 -105 -32 -5
-1 -13 -3 -17 -5 -5 -1 -12 -4 -18 -5 -5 -1 -11 -3 -12 -5 -8 -6 -50 -12 -103
-15 -33 -2 -60 -4 -60 -5 0 -1 -13 -3 -28 -5 -15 -2 -42 -12 -60 -22 -25 -15
-33 -27 -34 -53 -5 -59 54 -107 127 -104 25 1 45 3 45 4 0 1 25 4 55 6 30 3
78 12 107 20 29 8 57 13 62 10 5 -4 11 -2 13 3 1 5 21 12 43 15 22 4 79 17
128 31 48 13 87 21 87 17 0 -4 4 -2 8 4 4 7 21 13 37 15 17 2 36 7 43 12 6 5
12 7 12 4 0 -4 19 0 41 9 23 8 53 16 66 19 13 2 74 18 136 34 296 81 524 143
547 147 14 3 66 16 115 30 50 14 108 30 130 36 22 6 61 17 86 24 25 8 54 16
65 18 25 5 119 34 167 52 20 8 37 12 37 10 0 -2 24 5 53 16 28 10 57 20 62 22
6 1 48 15 95 31 47 16 87 30 90 30 3 1 12 4 20 8 8 3 42 14 75 25 33 11 102
37 154 57 52 19 102 37 110 39 9 2 23 6 31 9 8 3 56 20 105 38 142 50 195 70
335 126 106 43 150 61 172 73 10 6 25 10 33 10 8 0 15 5 15 10 0 6 5 10 10 10
6 0 27 7 48 17 20 9 39 17 42 17 3 1 38 18 78 39 39 20 72 34 72 30 0 -3 6 -1
13 5 6 5 48 29 92 52 115 62 113 60 195 114 168 112 264 236 224 291 -12 16
-28 19 -115 21 -119 2 -180 -14 -221 -59 -15 -16 -26 -32 -26 -36 13 -50 -143
-150 -452 -291 -63 -28 -131 -59 -150 -68 -19 -9 -37 -17 -40 -17 -10 -3 -65
-26 -95 -39 -55 -26 -182 -77 -196 -80 -8 -1 -32 -10 -54 -20 -22 -10 -71 -29
-110 -43 -38 -14 -81 -30 -95 -36 -14 -5 -29 -11 -35 -13 -5 -2 -122 -42 -259
-89 -137 -47 -258 -87 -270 -89 -12 -3 -48 -14 -81 -26 -33 -11 -61 -20 -62
-20 -2 0 -5 -1 -8 -1 -3 -1 -9 -3 -15 -4 -5 -1 -11 -3 -12 -5 -2 -1 -10 -3
-18 -5 -23 -4 -133 -36 -150 -42 -8 -3 -19 -7 -25 -7 -5 -1 -30 -8 -55 -15
-25 -7 -52 -15 -60 -16 -8 -2 -30 -8 -47 -14 -18 -5 -33 -8 -33 -6 0 2 -19 -2
-42 -11 -22 -8 -43 -13 -45 -11 -2 2 63 43 144 92 82 48 162 98 180 111 17 13
34 24 37 24 3 0 56 34 117 75 62 41 115 75 120 75 4 0 9 3 11 8 2 4 46 36 98
71 52 36 97 68 100 71 3 3 21 16 40 27 19 12 44 30 55 40 11 10 40 34 65 53
53 41 78 61 94 75 6 6 36 30 66 55 30 25 62 52 70 60 9 8 40 35 70 60 215 181
534 498 662 657 26 33 38 41 58 37 14 -2 41 -7 60 -10 19 -3 60 -9 90 -14 30
-5 73 -12 95 -15 47 -7 80 -13 115 -20 14 -3 41 -8 60 -11 19 -2 69 -11 110
-19 41 -8 87 -17 103 -20 53 -10 83 -16 157 -31 41 -9 84 -18 95 -20 11 -2 31
-6 45 -10 14 -3 34 -7 45 -9 11 -1 38 -8 60 -13 22 -6 51 -13 65 -16 39 -9 99
-23 163 -39 59 -15 65 -16 70 -18 12 -4 38 -9 67 -15 19 -3 41 -11 48 -16 6
-6 12 -8 12 -5 0 3 30 -3 68 -14 37 -11 76 -22 87 -24 11 -3 52 -14 90 -26 39
-11 77 -22 85 -24 8 -2 16 -4 18 -5 1 -2 5 -3 10 -4 36 -7 109 -31 117 -37 5
-5 16 -9 24 -9 24 0 351 -120 413 -151 10 -5 22 -9 28 -9 6 0 29 -8 53 -19 23
-10 87 -38 142 -61 196 -84 557 -258 563 -272 2 -5 11 -8 20 -8 10 0 28 -9 42
-20 14 -11 28 -20 32 -20 15 0 342 -189 436 -251 99 -67 115 -78 151 -109 9
-8 32 -27 51 -41 97 -73 256 -256 300 -344 8 -16 18 -32 21 -35 8 -7 53 -125
64 -170 1 -3 11 -26 23 -52 11 -26 23 -66 26 -88 4 -41 -20 -160 -35 -170 -4
-3 -11 -21 -14 -40 -3 -19 -17 -72 -31 -117 -14 -45 -27 -90 -29 -100 -3 -10
-14 -49 -26 -88 -11 -38 -31 -108 -44 -155 -13 -47 -40 -143 -60 -215 -20 -71
-38 -141 -41 -154 -3 -13 -18 -72 -34 -130 -24 -88 -48 -186 -65 -261 -2 -8
-4 -15 -5 -15 -1 0 -3 -9 -5 -20 -2 -11 -16 -67 -30 -125 -14 -58 -28 -116
-31 -130 -2 -14 -11 -54 -20 -88 -8 -35 -16 -72 -17 -83 -1 -10 -4 -19 -7 -19
-3 0 -6 -10 -6 -22 -2 -24 -9 -61 -24 -118 -5 -19 -12 -53 -16 -75 -3 -22 -8
-43 -10 -46 -2 -4 -6 -24 -10 -44 -3 -21 -7 -45 -9 -54 -9 -39 -56 -268 -60
-291 -5 -25 -10 -51 -20 -100 -2 -14 -7 -38 -10 -55 -3 -16 -7 -39 -9 -50 -6
-31 -18 -104 -18 -112 0 -5 -4 -17 -8 -28 -4 -11 -10 -40 -14 -65 -3 -25 -8
-56 -11 -70 -3 -14 -8 -41 -11 -60 -3 -19 -9 -60 -14 -90 -5 -30 -12 -73 -15
-95 -3 -22 -8 -56 -11 -75 -3 -19 -7 -55 -9 -80 -3 -25 -7 -61 -10 -80 -10
-65 -16 -134 -31 -355 -10 -155 -13 -181 -28 -235 -8 -30 -17 -68 -20 -85 -3
-16 -8 -48 -12 -70 -4 -22 -7 -48 -8 -57 0 -10 -3 -18 -6 -18 -6 0 -13 -103
-14 -208 -1 -100 28 -153 102 -189 44 -21 61 -25 110 -20 31 3 64 8 72 11 8 3
31 8 50 11 19 3 40 7 46 8 36 8 90 84 134 188 18 41 36 81 40 90 11 22 60 260
66 322 3 26 9 59 14 73 5 13 7 24 5 24 -2 0 0 12 6 28 11 28 37 120 44 156 2
12 4 21 5 21 1 0 4 11 7 25 6 30 7 35 21 85 6 22 14 54 17 70 7 32 12 57 15
65 1 3 3 10 5 15 1 6 3 12 4 15 2 3 4 14 6 25 2 17 14 65 30 125 2 8 11 49 20
90 42 185 45 197 58 250 4 14 9 36 11 50 2 14 20 94 41 178 20 85 38 166 40
180 3 15 19 90 35 167 17 77 33 151 36 165 2 14 9 36 14 50 9 25 31 102 36
130 2 8 13 51 24 95 12 44 24 91 26 104 3 14 8 29 11 34 11 18 42 151 37 159
-3 4 -2 8 3 8 4 0 9 17 11 37 3 47 5 58 33 173 27 112 22 92 37 160 23 102 23
104 47 275 3 22 8 56 11 75 3 19 8 51 10 70 2 19 6 44 8 55 19 88 25 336 12
515 -11 157 -19 220 -41 330 -24 122 -24 106 -7 165 20 73 169 538 198 620 14
39 27 77 29 85 2 8 24 78 50 155 26 77 48 145 49 152 1 7 5 16 9 19 4 4 7 13
7 20 0 7 5 25 12 41 6 15 12 30 13 33 1 3 8 25 15 50 7 25 14 47 15 50 1 3 5
12 8 20 10 23 69 207 127 395 29 94 63 203 76 244 13 40 24 77 24 82 0 4 5 20
12 36 6 15 12 33 13 38 16 71 43 129 76 160 52 49 78 122 74 203 -3 57 -2 64
21 78 14 10 24 26 24 39 0 13 7 25 15 29 20 7 19 60 0 76 -14 12 -129 16 -261
11 -12 -1 -54 -32 -95 -71 -41 -38 -77 -69 -81 -70 -5 0 -8 -5 -8 -11 0 -6 -7
-17 -15 -26 -8 -8 -13 -19 -10 -24 4 -5 2 -9 -3 -9 -6 0 -13 -12 -17 -27 -3
-16 -20 -58 -36 -95 -16 -37 -32 -89 -35 -115 -4 -26 -19 -88 -34 -138 -16
-49 -31 -106 -35 -125 -7 -40 -23 -77 -43 -102 -8 -9 -18 -34 -23 -55 -15 -61
-15 -62 -64 -208 -25 -77 -48 -147 -50 -155 -2 -8 -21 -69 -43 -135 -80 -240
-185 -579 -220 -708 l-18 -69 -29 39 c-96 126 -267 289 -423 402 -237 173
-472 304 -832 463 -85 38 -316 131 -332 134 -5 1 -10 3 -13 4 -3 1 -8 3 -12 5
-5 1 -19 6 -33 12 -14 5 -74 27 -135 47 -60 21 -119 41 -130 46 -36 15 -170
54 -177 52 -5 -1 -8 2 -8 6 0 4 -10 8 -22 10 -13 1 -50 10 -83 21 -32 11 -63
17 -67 15 -4 -3 -8 -1 -8 4 0 5 -6 9 -12 10 -7 0 -53 12 -103 26 -49 15 -99
28 -110 31 -11 2 -47 12 -80 21 -33 9 -67 18 -75 19 -8 2 -15 4 -15 5 0 1 -11
4 -25 6 -14 2 -88 20 -165 40 -77 19 -158 39 -180 44 -22 4 -94 20 -160 35
-66 14 -131 28 -145 31 -14 3 -65 13 -115 24 -207 42 -242 49 -275 54 -19 3
-46 8 -60 11 -48 10 -145 27 -165 29 -12 1 -26 6 -33 10 -7 4 -12 5 -12 3 0
-2 -19 0 -42 4 -24 5 -59 11 -78 14 -19 3 -42 6 -50 8 -28 7 -115 21 -130 21
-8 1 -15 6 -15 11 0 9 83 154 95 165 15 14 93 188 125 281 34 98 38 105 63
106 15 1 38 4 52 8 14 3 39 8 55 11 17 3 53 9 80 15 76 14 90 17 126 23 19 3
45 8 59 10 14 3 42 7 64 10 21 4 41 8 45 10 3 2 26 7 51 10 25 3 57 8 72 11
32 6 66 12 123 20 22 3 74 12 115 20 80 15 208 35 250 40 14 1 34 5 45 8 11 3
43 8 70 12 63 8 111 15 150 22 17 3 44 7 60 8 17 2 41 6 55 9 14 3 45 7 70 10
25 3 61 8 80 11 19 3 53 7 75 10 63 8 128 17 150 22 11 2 41 5 66 8 26 2 60 6
75 9 94 15 115 18 160 21 27 2 60 6 73 9 13 3 54 8 90 11 37 3 77 7 91 10 14
3 52 7 85 10 33 2 71 6 85 9 14 3 48 7 75 11 28 3 84 10 125 15 41 6 102 12
135 15 33 3 69 7 81 9 11 2 53 7 93 11 40 3 82 8 94 11 11 2 48 6 81 9 34 3
75 7 91 9 17 2 64 7 105 11 41 4 89 9 105 11 69 7 144 14 200 19 33 3 78 8
100 10 60 7 122 13 200 20 39 3 84 8 100 10 17 2 66 7 110 10 44 3 98 7 120
10 22 3 74 7 115 10 41 3 91 7 110 10 39 5 204 17 262 19 21 0 38 3 38 6 0 3
28 5 63 6 55 1 120 5 300 19 63 5 207 15 302 20 39 3 106 7 150 10 44 3 132 8
195 10 63 3 144 8 180 10 263 15 750 35 976 39 77 2 146 6 152 10 6 3 13 3 16
-2 3 -5 29 -5 58 -2 64 9 1708 9 1708 1 0 -3 62 -6 138 -7 75 0 220 -4 322 -8
102 -4 210 -9 240 -9 30 -1 58 -6 62 -12 5 -6 8 -5 8 3 0 7 3 11 8 9 4 -3 63
-8 132 -12 69 -4 145 -8 170 -10 25 -2 95 -6 155 -9 61 -4 130 -8 155 -11 25
-2 86 -6 135 -10 92 -6 161 -12 250 -20 28 -2 79 -7 115 -10 81 -6 150 -13
215 -19 28 -3 77 -8 110 -11 33 -3 71 -7 85 -9 14 -3 57 -8 95 -11 39 -4 81
-8 95 -10 42 -4 144 -16 170 -20 14 -2 52 -6 85 -10 32 -4 66 -8 75 -10 245
-46 440 1 440 105 0 40 -29 50 -207 75 -21 3 -51 8 -68 11 -16 3 -47 7 -67 9
-21 3 -53 7 -70 9 -18 3 -55 7 -83 10 -27 4 -68 9 -90 12 -72 9 -119 14 -162
18 -47 5 -136 15 -173 21 -14 2 -56 7 -95 11 -38 3 -86 8 -105 10 -19 2 -62 6
-95 8 -33 3 -85 8 -115 11 -166 16 -234 22 -355 30 -217 15 -263 18 -297 19
-21 1 -38 3 -38 6 0 3 -37 5 -83 6 -45 1 -131 4 -192 7 -60 4 -173 9 -250 12
-77 4 -180 8 -230 10 -367 17 -1334 23 -1855 11 -124 -2 -225 -5 -225 -5 0 -1
-88 -3 -195 -6 -107 -3 -235 -7 -285 -10 -49 -2 -155 -7 -235 -11 -80 -3 -176
-8 -215 -10 -38 -2 -115 -6 -170 -8 -114 -6 -231 -13 -357 -21 -48 -4 -118 -8
-155 -10 -37 -2 -93 -6 -123 -9 -30 -3 -102 -8 -160 -12 -183 -11 -194 -12
-260 -18 -142 -14 -178 -17 -250 -22 -41 -2 -94 -6 -117 -8 -118 -11 -193 -18
-238 -21 -27 -2 -77 -7 -109 -10 -72 -8 -145 -15 -206 -20 -25 -2 -65 -6 -90
-9 -25 -3 -72 -7 -105 -10 -33 -3 -76 -7 -95 -10 -34 -5 -88 -11 -195 -21 -27
-3 -66 -7 -85 -10 -19 -2 -62 -7 -95 -10 -33 -3 -70 -7 -81 -9 -11 -2 -51 -7
-89 -11 -39 -3 -83 -8 -100 -11 -16 -2 -52 -6 -80 -9 -27 -2 -50 -5 -50 -5 0
-1 -16 -3 -35 -5 -122 -12 -158 -16 -185 -20 -16 -2 -55 -7 -85 -10 -30 -3
-66 -8 -80 -10 -14 -2 -50 -6 -80 -10 -30 -3 -71 -7 -90 -10 -19 -3 -60 -7
-90 -10 -30 -3 -66 -7 -80 -10 -37 -6 -130 -17 -165 -20 -16 -2 -48 -6 -71 -9
-23 -4 -59 -8 -80 -11 -21 -2 -59 -7 -84 -10 -25 -4 -61 -8 -81 -10 -20 -1
-50 -6 -65 -9 -16 -3 -51 -8 -79 -11 -27 -3 -61 -7 -75 -9 -14 -2 -50 -7 -80
-10 -30 -4 -66 -9 -80 -11 -14 -3 -38 -7 -55 -9 -16 -3 -50 -8 -75 -12 -25 -4
-61 -8 -80 -9 -19 -2 -35 -4 -35 -5 0 -2 -11 -4 -25 -5 -23 -2 -98 -12 -145
-19 -78 -13 -226 -34 -275 -41 -25 -3 -52 -8 -60 -10 -8 -2 -33 -7 -55 -10
-23 -3 -52 -8 -65 -10 -14 -3 -45 -8 -70 -11 -25 -3 -54 -8 -65 -11 -11 -2
-36 -6 -55 -9 -19 -2 -58 -9 -86 -14 -28 -6 -66 -12 -85 -14 -19 -3 -62 -12
-96 -21 -35 -9 -73 -18 -85 -21 -55 -12 -64 -14 -88 -20 -14 -3 -43 -8 -65
-10 -22 -2 -58 -6 -81 -8 l-41 -4 2 61 c1 57 -4 100 -20 181 -17 84 -104 230
-175 294 -72 65 -251 170 -355 208 -28 10 -103 33 -150 45 -38 10 -50 13 -105
24 -32 6 -88 13 -165 20 -33 4 -80 8 -105 11 -25 3 -67 7 -95 10 -27 3 -70 7
-95 10 -56 7 -854 17 -860 11z m1706 -1128 c3 -6 2 -21 -4 -32 -6 -12 -24 -51
-40 -87 -32 -72 -139 -253 -153 -258 -5 -2 -9 -10 -9 -17 0 -14 -27 -28 -39
-21 -4 3 -36 8 -72 12 -35 3 -67 8 -70 10 -4 2 -31 6 -60 10 -30 3 -65 8 -79
10 -14 2 -47 7 -75 10 -27 3 -69 10 -92 14 -24 4 -125 8 -225 9 -100 0 -183 3
-185 5 -2 2 9 17 25 33 29 28 209 123 235 123 7 0 17 4 23 9 5 6 21 12 36 15
14 2 36 10 48 16 12 6 24 9 27 6 3 -3 22 1 42 9 35 14 122 33 182 40 59 8 106
16 199 36 52 10 106 21 120 23 43 7 84 16 115 25 41 13 43 13 51 0z"/>
</g>
</svg>
